<?xml version="1.0" encoding="UTF-8"?>
<!DOCTYPE svg PUBLIC "-//W3C//DTD SVG 1.1//EN" "http://www.w3.org/Graphics/SVG/1.1/DTD/svg11.dtd">
<!-- Creator: CorelDRAW 2020 (64-Bit) -->
<svg xmlns="http://www.w3.org/2000/svg" xml:space="preserve" width="243.379mm" height="53.7744mm" version="1.1" style="shape-rendering:geometricPrecision; text-rendering:geometricPrecision; image-rendering:optimizeQuality; fill-rule:evenodd; clip-rule:evenodd"
viewBox="0 0 28238.77 6239.34"
 xmlns:xlink="http://www.w3.org/1999/xlink"
 xmlns:xodm="http://www.corel.com/coreldraw/odm/2003">
 <defs>
  <style type="text/css">
   <![CDATA[
    .fil0 {fill:#B150E5}
   ]]>
  </style>
 </defs>
 <g id="Слой_x0020_1">
  <metadata id="CorelCorpID_0Corel-Layer"/>
  <g id="_2186592452752">
   <path class="fil0" d="M15262.5 5439.36c-75.09,0 -122.18,-1.52 -172.96,-72.39 -14.55,-20.3 -26.99,-38.21 -33.11,-67.26 -22.14,-104.94 -9.61,-193.53 14.2,-297.59 19.82,-86.7 92.6,-244.78 130.5,-321.19 100.4,-202.43 299.8,-509.43 452.97,-684.6 18.52,-21.19 30.65,-40.52 50.34,-61.19 12.45,-13.06 13.92,-17.98 25.13,-30.62l253.1 -254.35 125.83 -102.8c86.78,-64.77 177.62,-128.23 274.85,-176.84 52.7,-26.35 99.32,-51.84 163,-65.63 55.23,-11.95 148.7,-27.49 176.4,27.36 52.54,104 17.66,280.71 -9.2,385.19 -30.63,119.17 -40.32,146.78 -82.45,252.13 -33.68,84.24 -66.98,152.6 -108.27,231.89 -101.26,194.52 -357.8,568.72 -520.1,729.02 -21.28,21.01 -31.64,37.57 -52.92,58.61 -168.01,166.06 -432.95,450.26 -687.32,450.26zm7054.1 -825.3c25.47,-53.08 -4.2,-11.54 55.45,-111.85 62.16,-104.53 174.44,-246.48 251.98,-344.7l287.85 -308.81c29.9,-29.95 56.45,-50.62 86.38,-80.91l137.28 -119.23c151.35,-122.55 425.96,-322.65 619.75,-322.65 52.42,0 124.38,16.14 136.43,69.91 34.27,152.98 -76.29,287.47 -161.86,400.95 -53.36,70.77 -153.86,186.06 -223.85,244.56 -37.14,31.05 -52.69,52.49 -115.59,101.91 -33.59,26.37 -64.5,51.33 -98,74.86 -136.57,95.91 -273.33,179.9 -435.07,250.82 -143.98,63.13 -237.34,88.16 -389.08,123.94 -46.54,10.98 -92.16,21.2 -151.68,21.2zm2291.89 5.57c5.15,-61.87 127.94,-198.94 172.84,-256.54l375.04 -405.66c30.54,-30.63 58.27,-52.42 89.18,-83.69l91.09 -81.76c18.47,-14.28 24.9,-23.79 44.61,-39.03l92.82 -80.05c169.89,-148.07 411.77,-324.67 645.6,-324.67 23.75,0 37.4,6.76 50.6,16.31 86.03,62.23 -39.62,257.52 -77.3,313.86l-111.87 144.65c-80.89,100.99 -208.48,211.09 -311.81,296 -106.58,87.6 -292.15,206.02 -421.37,270.1l-174.76 81.75c-21.34,10.77 -39.43,18.09 -61.62,27.59 -99.31,42.56 -298.11,121.13 -403.05,121.13zm-5052.19 -1421.97c0,53.44 15.15,91.38 44.38,128.49 89.26,113.32 282.82,64.27 345.96,94.57 -60.35,125.77 -83.93,162.79 -156.39,284.13 -108.93,182.38 -329.55,494.38 -466.85,648.42l-104.03 119.02c-54.32,70.32 -295.78,308.67 -364.21,377.45l-237.4 208.69c-14.17,11.99 -25.55,20.12 -40.54,31.97 -15.22,12.04 -24.08,20.34 -39.62,32.86 -111.31,89.68 -224.44,173.82 -344.17,252.49 -91.23,59.94 -188.94,114.15 -291.61,154.51 -169.53,66.65 -358.56,51.88 -358.56,-163.4 0,-169.98 43.17,-317.87 92.74,-464.89 33.27,-98.66 84.12,-187.78 135.6,-277.05 62.37,-108.17 120.62,-219.25 189.82,-323.2l160.66 -246.41c28.29,-42.44 52.17,-82.38 82.4,-123.93 106.28,-146 262.51,-396.48 367.04,-553.05 15.81,-23.67 26.34,-40.88 41.31,-64.65 65.89,-104.7 114.47,-171.98 -19.39,-246.12 -211.14,-116.96 -385,46.99 -551.56,160.32 -197.19,134.16 -546.35,249.81 -776.75,321.8 -65.67,20.51 -157.55,32.74 -240.48,32.74 0,-172.65 -11.54,-423.53 -81.7,-570.74 -33.09,-69.45 -90.39,-133.41 -152.75,-170.69 -181.98,-108.74 -359.58,-91.75 -550.29,-9.84 -131.59,56.53 -224.39,139.86 -331.36,226.28 -56.19,45.38 -106.21,98.41 -165.49,141.21 -104.98,75.78 -524.93,7.45 -619.87,-34.52 -230.72,-102 -203.79,-147.1 -242.23,-421.37 -14.91,-106.47 -27.5,-261.59 -121.31,-324.8 -66.88,-45.08 -238.8,-125.16 -238.8,32.48 0,107.72 14.62,221.23 28.81,322.5 27.49,196.17 53.35,315.16 -2.1,512.79 -17.86,63.65 -46.11,136.62 -78.05,195.18 -154.71,283.62 -288.92,483.57 -480.01,741.21l-94.03 112.29c-12.86,16.06 -16.01,20.72 -31.21,35.7 -67.52,66.51 -129.87,143.78 -200.82,206.26l-71.48 62.34c-25.57,19.77 -49,45.16 -74.03,65.38 -100.81,81.43 -204.58,162.06 -314.17,232.32 -113.03,72.47 -228.12,137.97 -348.39,198.09 -107.81,53.91 -312.77,180.2 -447.96,148.7 0,-90.61 52.22,-203.05 82.8,-285.23 89.12,-239.51 175.61,-431.23 267.72,-657.95 18.45,-45.39 39.64,-84.02 58.91,-130.71l358.25 -751.44c35.55,-73.96 79.92,-202.64 79.92,-304.83 0,-36.6 -16.77,-81.32 -26.98,-106.86 -51.32,-128.37 -199.67,-206.43 -333.24,-153.01 -100.69,40.27 -171.18,235.82 -214.21,332.28 -125.46,281.22 -204.8,517.8 -314.61,789.51 -21.96,54.36 -38.94,103.01 -60.53,156.94 -95.5,238.54 -394.32,918.27 -394.32,1150.33 0,80.47 1.25,138.05 44.87,206.07 48.33,75.35 130.79,116.99 217.16,139.74 179.6,47.29 259.4,29.9 428.71,-39.83 142.71,-58.78 280.23,-129.87 413.11,-205.88 127.47,-72.91 250.69,-162.57 365.91,-253.07 58.68,-46.09 111.03,-97.77 169.7,-142.56 49.11,-37.51 114.16,-105.81 157.53,-149.18 49.27,-49.27 111.86,-107.4 152.39,-159.88l140.52 -166.19c72.07,-82.41 139.34,-169.59 205.17,-257.65l320.5 -454.62c47.68,-79.85 101.65,-157.06 144.66,-240.11l76.27 -157.94c33.9,-70.51 56.15,-155.11 96.66,-215.61l327.84 101.54c54.89,12.94 115,24.86 177.16,34.75 63.44,10.09 134.73,12.08 192.04,25.43 -37.63,71.11 -87.13,135.6 -134.67,199.9 -24.59,33.25 -45.05,63.58 -70.12,97.17 -121.85,163.3 -241.64,330 -351.77,501.42 -85.81,133.56 -183.94,295.5 -240.92,439.39 -95,239.88 -150.2,555.51 -64.81,806.6 23.07,67.85 55.53,118.66 105.26,167.99 120.31,119.33 225,146.32 405.73,146.32 229.98,0 500.88,-113.99 665.03,-260.65 13.63,-12.18 28.59,-24.53 42.4,-35.68 85.01,-68.62 156.92,-151.54 233.7,-229.13 79.27,-80.09 175.54,-205.21 244.26,-296.65 166.01,-220.91 431.52,-630.68 514.76,-879.33 13.44,-40.12 24.52,-77.29 35.21,-120.92 39.65,-161.63 47.01,-95.43 286.77,-176.06 41.24,-13.88 76.54,-24.18 116.02,-40.11 64.6,-26.07 516.35,-228.73 544.08,-231.05 -1.32,59.68 -313.62,515.77 -366.28,604.02 -150.26,251.9 -324.07,611.12 -415.19,884.09 -67.59,202.46 -92.18,627.99 80.13,785.78 186.16,170.46 494.48,154.86 716.22,55.18 207.88,-93.45 377.01,-212.89 556.38,-346.99 14.06,-10.51 14.85,-12.69 27.15,-23.03l80.42 -70.14c12.39,-12.04 15.39,-12.14 27.74,-22.46 73.04,-61.07 395.24,-381.23 428.67,-424.51 17.14,-22.18 29.12,-32.89 48.36,-52 9.2,-9.15 16.57,-15.45 24.84,-25.35l139.74 -161.37c10.33,-11.59 14.26,-14.45 23.62,-26.57 13.87,-17.94 29.99,-36.48 45.85,-54.52 25.07,-28.51 63.49,-98.19 104.7,-101.63 -5.01,60.18 -40.7,129.59 -56.95,188.42 -17.28,62.54 -42.98,123.31 -61.34,189.59 -52.84,190.6 -134.56,428.98 -32.3,631.34 86.84,171.81 239.17,269.31 428.78,307.29 240.93,48.26 591.75,-32.28 822.72,-120.92 187.52,-71.96 293.53,-127.55 458.54,-210.64 169.96,-85.57 313.16,-218.45 457.53,-339.87l129.08 -116.28c46.7,-37.27 84.77,-77.29 134.66,-110.7 0,108.52 -22.31,200.24 -22.31,312.28 0,219.97 1.44,381.94 209.63,526.47 158.34,109.92 467.88,152.94 684.99,117.22 93.58,-15.4 163.26,-40.54 246.99,-76.44 219.19,-94.01 423.87,-213.4 614.15,-356.15 31.9,-23.92 60.29,-45.03 91.3,-70.41 133.01,-108.82 267.7,-214.52 396.07,-328.86l89.54 -72.17c17.33,-14.07 29.33,-25.1 48.44,-35.21 0,60.82 -83.64,203.43 -83.64,429.38 0,121.2 26.49,237.34 104.55,324.82 105.53,118.3 268.11,198.27 432.36,220.08l147.94 12.14c191.62,-19.17 226.86,-16.52 412.99,-78.18 230.33,-76.3 425.02,-209.3 609.81,-360.48l119.73 -97.75c69.44,-58.83 195.84,-173.82 250.96,-239.76 56.24,-67.27 120.94,-128.97 174.04,-199.77 28.19,-37.58 15.61,-50.01 -21.92,-21.93l-238.4 196.76c-100.14,82.41 -209.41,151.99 -316.94,223.96l-134.31 83.17c-25.31,14.09 -46.93,24.78 -71.86,39.66 -138.61,82.75 -292.85,144.06 -442.86,204.02 -59.17,23.66 -116.98,28.6 -183.72,33.74 -58.4,4.49 -139.38,7.59 -197.64,-9.34 -17.67,-5.14 -19.99,-8.2 -35.37,-14.84 -15.75,-6.79 -23.7,-8.86 -38.83,-16.93 -23.7,-12.64 -45.29,-28.84 -66.39,-45.12 -35.68,-27.52 -68.55,-85.73 -86.79,-130.69 -52.17,-128.62 -28.51,-314.19 8.45,-439.42 73.31,-248.3 131.59,-213.03 342.97,-248.14 307.52,-51.09 607.94,-163.23 881.92,-305.84 127.26,-66.25 249.22,-147.03 363.99,-232.67 229.9,-171.52 416.59,-417.72 484.72,-703.06 22.54,-94.47 14.81,-160.41 -20.14,-244.29 -56.88,-136.5 -231.29,-214.15 -382.53,-214.15 -219.06,0 -342.26,31.88 -529.82,105.89 -46.59,18.38 -85.52,37.29 -130.06,59.55 -46.69,23.34 -77.76,41.67 -118.48,71.13 -74.33,53.78 -139.28,112.06 -211.04,168.15 -37.86,29.59 -67.42,61.26 -104.4,90.76l-240.34 233.66c-47.94,47.78 -94.78,94.5 -137.2,147.19l-693.69 828.66 -145.94 138.44c-36.72,28.37 -64.89,60.67 -99.67,89.93l-103.58 86.02c-19.54,15.57 -36.31,29.11 -55.76,44.61 -200.95,160.1 -461.22,363.85 -699.74,443.41 -136.98,45.69 -371.13,91.36 -523.95,31.58 -80.42,-31.46 -152.38,-87.93 -185.67,-171.22 -55.86,-139.73 -32.48,-362.07 29.33,-490.46 17.16,-35.64 21.21,-48.37 47.87,-74.8 48.64,-48.22 83.8,-64.87 158.33,-87.02 174.6,-51.88 347.56,-51.1 590.79,-145.29 165.35,-64.04 273.59,-110.31 426.16,-192.82 26.25,-14.19 51.13,-29.65 77.8,-44.89 76.16,-43.57 150.31,-94.02 220.94,-147.09 24.99,-18.78 46.59,-33.86 70.07,-52.62 47.57,-37.98 88.53,-76.13 131.68,-119.27 139.47,-139.45 335.97,-435.05 335.97,-651.03 0,-111.19 -26.56,-209.37 -101.65,-283.13 -172.3,-169.23 -446.63,-113.61 -646.33,-46.63 -203.43,68.24 -419.34,165.46 -588.82,292.25l-61.19 44.76c-121.05,98.25 -239.53,204.7 -337.07,326.5l-99.55 117.92c-79.87,102.77 -167.18,201.36 -249.66,302.42l-146.98 182.01c-48.79,61.59 -96.95,126.34 -151.24,183.35l-103.16 114.32c-37.64,37.57 -71.13,71.13 -108.73,108.73l-173.84 155.15c-22.82,17.94 -38.44,32.14 -61.38,50.16 -21.98,17.26 -38.03,29.95 -59.74,46.21 -314.55,235.94 -746.62,455.87 -1125.05,531.12 -185.15,36.82 -597.23,35.9 -597.23,-240.34 0,-150.36 53.73,-264.59 105.93,-395.93 21.62,-54.36 45.45,-109.67 70.64,-163.58 13.44,-28.77 23.11,-54.09 35.4,-81.7 47.9,-107.66 96.64,-216.73 154.28,-319.72 8.96,-16.01 13.56,-21.5 22.29,-39.04 7.91,-15.87 11.87,-25.41 20.89,-40.46 31.14,-52 54.9,-102.6 85.79,-153.99l176.29 -297.69c15.85,-25.75 29.69,-45.85 45.48,-71.62 52.77,-86.17 175.61,-290.52 249.33,-352.91 46.1,-39.02 91.41,-57.58 162.45,-71.76 70.79,-14.12 138,-16.68 212.71,-27.07 137.19,-19.06 290.2,-26.9 433.48,-46.07l834.47 -113.51c134.96,-18.45 276.43,-43.99 408.12,-65.89 67.86,-11.29 137.35,-23.74 200.13,-39.65 45.27,-11.48 122.36,-52.27 75.58,-75.36 -16.44,-8.12 -1279.91,-2.83 -1486.53,-2.83 -83.64,0 -148.85,-5.58 -234.21,-5.58 -37.38,0 -80.47,2.01 -117.13,0.02 -29.62,-1.6 -81,-3.56 -105.92,-16.75 3.69,-44.39 60.2,-104.77 88.45,-140.17 75.1,-94.06 150.13,-199.43 233.53,-285.09l298.24 -343.04c18.01,-20.64 32.08,-40.59 50.39,-61.14 42.86,-48.14 137.97,-147.56 137.97,-213.34 0,-20.42 -16.2,-34.24 -28.44,-44.06 -99.4,-79.76 -319.98,-244.13 -439.41,-156.13l-107.94 92.81c-203.99,206.39 -431.87,492.78 -593.02,734.16 -67.85,101.64 -126.95,210.73 -194.01,313.44 -36.75,56.29 -82.91,46.78 -145.15,55.59 -155.28,21.99 -324.1,8.24 -476.68,36.35 -92.25,17.01 -162.25,134.15 -162.25,244.82z"/>
   <path class="fil0" d="M6479.74 5394.75c-36.48,0 -56.68,-6.64 -83.05,-17.32 -109.23,-44.28 -106.55,-169.9 -106.55,-267.06 0,-51.83 22.94,-124.79 34.56,-171.77 14.9,-60.21 32.78,-105.24 53.86,-158.04 39.5,-98.87 84.4,-196.02 134.88,-283.34l116.6 -195.69c89.62,-149.7 203.32,-283.05 311.71,-418.79 30.1,-37.7 73.33,-73.89 102.02,-109.87 33.56,-42.06 85.63,-94.25 128.26,-128.26 11.36,-9.06 17.97,-16.74 28.4,-27.36l56.09 -49.87c147.44,-124.9 455.22,-363.2 656.41,-280.56 23.81,9.77 38.06,20.61 53.52,41.27 43.38,57.99 52.36,111.43 52.36,181.85 0,276.94 -220.88,673.93 -375.85,906.71 -50.15,75.33 -212.67,292.85 -277.91,363.38l-50.51 55.44c-51.47,61.56 -201.2,198.57 -272.9,262.43 -38.36,34.17 -75.53,64.49 -116.61,95.29 -106.8,80.11 -302.4,201.55 -445.3,201.55zm-6479.74 -1148.72l5.4 178.63c0.81,27.58 5.11,27.8 5.81,55.53 2.01,78.74 16.64,151.02 28.55,222.38 31.32,187.5 106.22,387.5 188.87,552.78 251,502.01 740.85,840.26 1296.07,940.06 409.15,73.54 905.65,57.6 1303.22,-69.44 107.84,-34.46 218.27,-69.64 321.19,-113.78 130.03,-55.76 251.56,-109.32 375.17,-171.32l358.76 -187.72c195.91,-99.37 491.12,-309.59 670.62,-433.49 279.05,-192.63 553.11,-393.16 819.55,-602.42 225.69,-177.24 445.14,-361.52 667.28,-542.8l243.37 -197.17c61.78,-48.95 183.23,-166.06 257.23,-183.3 -9.69,41.6 -71.66,110.91 -98.01,147.36 -176.03,243.37 -449.43,676.72 -507.51,970.23 -19.84,100.31 -24.62,217.92 -24.62,326.69 0,143.02 60.97,279.2 141.76,382.43 40.54,51.78 82.6,87.23 140.15,121.93 243.16,146.56 524.56,-10.96 705.04,-130.8 35.02,-23.25 69.77,-42.39 104.44,-68.42l287.37 -236.82c30.17,-30.18 56.25,-56.26 86.43,-86.44 86.52,-86.51 170.51,-177.22 246.04,-272.56l146.87 -198.86c46.7,-69.74 94.06,-143.86 132.74,-218.57l89.27 -167.24c9.83,-20.08 17.58,-41.34 27.74,-61.48 19.92,-39.45 34.8,-76.09 53.88,-118.99l99.05 -246.68c24.71,-59.66 32.56,-64.26 87.6,-85.27 42.39,-16.17 87.39,-25.55 135.34,-37.52 51.49,-12.87 90.55,-23.94 140.34,-38.12 177.79,-50.59 340.15,-121.97 496.88,-194.59l410.74 -197.07c16.31,-7.61 48.16,-22.74 65.08,-24.15 -14.63,62.83 -126.33,235.54 -159.94,291.73 -229.92,384.39 -457.51,767.8 -635.87,1182.04 -74.33,172.59 -313.67,699.97 -231.95,864.46 60.23,121.25 278.84,90.06 366.11,39.24 73.03,-42.54 90.69,-144.36 123.11,-228.2 51.95,-134.38 95.19,-276.25 148.14,-409.49 51.85,-130.49 106.68,-263.37 169.2,-388.44 30.36,-60.71 60.21,-128.87 94.01,-184.81 61.03,-100.98 119.28,-201.84 186.26,-298.89 141.86,-205.57 330.36,-373.33 537.55,-510.81 145.6,-96.6 304.09,-176.51 477.39,-219.65 80.62,-20.07 179.68,-42.37 269.9,-42.37 56.6,0 12.81,119.17 5.59,133.85 -11.68,23.73 -21.67,48.89 -33.43,72.52 -12.26,24.64 -23.69,42.08 -37.15,68.82l-189.17 340.57c-14.39,24.04 -22.76,47.03 -36.06,69.9 -52.33,90.05 -93.74,189.52 -141.01,282.78l-65.93 145.99c-9.94,24.76 -20.33,47.98 -31.06,74.9 -106,265.95 -144.15,396.78 -168.66,679.19 -1.67,19.2 0.63,30.5 3.04,46.54 2.91,19.35 1.25,33.52 3.14,52.63 17.06,173.04 121.06,413.43 328.23,413.43l61.33 0c193.08,0 598.94,-243.32 762.58,-408.45 21.77,-21.96 71.74,-58.99 79.46,-87.84 -102.08,2.27 -363.06,234.21 -624.56,234.21 -103.9,0 -167.29,-148.3 -167.29,-256.51 0,-336.77 176.05,-658.8 321.57,-949.84l215.55 -420.15c57.84,-115.76 129.82,-225.34 187.81,-341.95l97.22 -220.63c19.85,-67.99 32.91,-101.41 15.69,-176.69 -26.77,-117.03 -125.91,-182.63 -246.75,-182.63 -127.24,0 -249.38,23.63 -366.01,63.36 -152.48,51.96 -525.85,200.35 -669.34,273.07 -37.11,18.8 -93.62,44.1 -135.68,53.91 5.04,-60.5 101.13,-158.29 43,-271.62 -36.21,-70.59 -109.73,-107.57 -193.56,-107.57 -117.27,0 -204.38,54.24 -291.07,110.44 -28.04,18.18 -54.87,32.82 -83.56,50.27l-173.72 93.94c-62.4,31.21 -118.67,61.24 -184.51,88.74 -245.43,102.48 -470.54,172.24 -735.23,207.17 -22.28,2.94 -43.22,0.02 -65.11,1.8 -23.97,1.95 -35.35,5.28 -67.22,5.28 0,-103.65 -10.63,-198.71 -16.92,-295.35 -12.5,-191.86 -85.29,-430.92 -287.68,-493.03 -33.24,-10.2 -91.84,-25.77 -130.36,-25.77 -258.2,0 -493.57,128.68 -692.58,260.97 -145.84,96.96 -279.57,226.03 -416.33,336.48 -15.08,12.18 -21.52,18.84 -35.91,31.01l-150.57 128.25c-27.16,22.99 -48.78,40.89 -75.09,64.31l-367.67 312.65c-26.66,22.56 -47.98,42.69 -74.94,64.47 -163.09,131.69 -314.8,276.66 -479.51,407.13 -12.96,10.27 -23.8,19.06 -37.04,29.89l-234.71 183.5c-101.62,81.29 -213.27,151.1 -317.78,228.71 -25.93,19.27 -52.62,35.54 -80.02,53.8 -29.24,19.49 -54.46,36.21 -83.63,55.77 -165.6,111.09 -334.49,210.25 -506.03,313.69 -26.8,16.16 -57.2,34.14 -84.2,49.63 -30.77,17.65 -58.36,30.54 -90.77,48.65 -31,17.32 -59.34,31.37 -89.78,49.61l-179.77 93.48c-377.56,190.3 -943.42,390.62 -1346.64,432.2 -261.16,26.93 -550.33,16.87 -801.12,-44.81 -127.35,-31.33 -309.89,-104.63 -425.09,-171.57 -122.97,-71.46 -245.47,-142.64 -346.88,-244.22 -84.29,-84.43 -150.07,-182.04 -211.61,-284.69 -65.16,-108.65 -110.48,-220.89 -150.18,-346.12 -115.92,-365.63 -13.74,-870.41 85.54,-1226.35l60.87 -190.05c60.44,-181.4 144.58,-362.88 227.93,-530.47 27.56,-55.43 60.21,-108.13 89.23,-161.71 86.84,-160.34 193.67,-309.56 302.69,-455.69l111.2 -139.74c39.45,-45.23 74.75,-96.56 117.22,-139.28l57.62 -65.06c21.53,-27.85 38.97,-39.94 60.47,-67.78 62.56,-81.02 231.89,-227.73 322.43,-307.71 12.22,-10.79 18.56,-19.91 31.27,-30.06 16.51,-13.18 20.32,-16.02 35.6,-31.32 72.3,-72.37 273.35,-224.2 349.2,-280.94 25.46,-19.05 48.75,-35.03 74.08,-54.17l150.88 -105.62c125.79,-83.84 254.99,-171.13 391.03,-239.1 202.6,-101.22 295.2,-153.71 524.54,-233.84 33.79,-11.81 58.76,-22.99 95,-33.27 155.9,-44.22 244.56,-70.09 409.45,-97.99 71.29,-12.07 153.42,-14.02 226.24,-24.69 102.62,-15.06 255.82,-13.51 360.12,-13.51 59.75,0 99.8,3.93 156.31,5.41 24.05,0.63 48.52,3.92 77.53,6.11 18.69,1.4 52.82,5.14 75.33,8.32 50.82,7.16 95.64,11.29 142.54,19.17 90.9,15.28 176.56,37.64 262.82,66.19 43.48,14.39 78.48,30.43 120.36,46.93 76.31,30.07 150.81,70.67 215.78,113.22 83.88,54.94 156.51,111.13 222.11,184.96 13.12,14.76 23.79,31.21 36.1,47.56 190.26,252.67 194.17,602.57 88.72,916.42 -81.28,241.87 -267.71,584.26 -459.33,773.04 -17.86,17.6 -24.17,24.67 -39.62,44.03 -24.78,31.07 -54.8,50.07 -83.09,78.62 -15.22,15.36 -25.14,27.27 -42.77,40.88 -20.36,15.71 -26.04,24.77 -43.91,39.74l-277.18 219.13c-27.34,20.43 -75.6,49.13 -83.64,83.64 80.43,42.56 236.36,-10.33 318.72,-43.75 138.61,-56.23 258.58,-129.7 380.58,-210.52l192.08 -159.2c12.4,-9.9 15.22,-10.69 27.43,-22.76 102.74,-101.65 193.73,-203.17 273.42,-323.25 13.93,-21 27.66,-40.16 39.89,-60.49 92.96,-154.47 160.36,-323.06 195.89,-501.16 26.18,-131.19 47.21,-304.2 27.12,-446.27 -27.22,-192.36 -74.23,-360.63 -178.43,-524.19 -53.38,-83.83 -158.71,-203.69 -233.09,-263.21 -200.29,-160.3 -355.16,-216.61 -602.42,-295.37 -262.22,-83.53 -544.16,-144.33 -853.84,-144.33 -155.35,0 -320.68,-10.22 -473.68,11.48 -395.63,56.09 -774.67,173.21 -1141.89,319.11 -168.87,67.1 -364.65,177.95 -520.49,271.35 -177.02,106.08 -350.63,218.77 -516.77,341.99 -92.43,68.54 -174.08,140.96 -260.39,208.02 -96.57,75 -418.15,388.87 -470.81,454.88 -19.72,24.73 -45.45,43.01 -66.1,67.73l-120.47 141.62c-42.39,50.15 -78.25,97.35 -119.67,147.98l-113.6 148.49c-39.17,51.85 -73.46,104.34 -110.76,156.9 -37.54,52.9 -68.35,100.12 -103.51,158.58 -18.32,30.47 -31.18,53.62 -49.4,84.43l-161.27 301.57c-209.14,435.71 -366.11,940.64 -366.11,1429.48z"/>
   <path class="fil0" d="M23788.77 2617.73c134.55,0 242.52,-76.51 360.1,-125.03 56.3,-23.24 102.87,-51.53 154.76,-79.47l224.89 -120.84c150.58,-82.04 381.09,-244.71 381.09,-438.62 0,-56.31 -54.52,-94.81 -111.53,-94.81 -67.48,0 -144.56,64.43 -195.18,100.36l-244.58 179.23c-45.96,34.38 -89.96,70.3 -134.6,105.18l-294.22 241.11c-11.5,10.64 -19.33,19.48 -30.6,30.75 -31.36,31.36 -131.89,126.99 -135.66,170.42 -1.21,13.95 7.94,31.72 25.53,31.72z"/>
   <path class="fil0" d="M27134.59 2729.26c0,-204.35 105.89,-378.79 276.91,-464.74 130.65,-65.67 277.64,-68.99 413.98,-25.41 40.75,13.02 88.51,41.16 124.47,65.13 113.95,75.95 205.1,233.53 205.1,374.83 0,104.62 2.16,158.11 -46.39,254.73 -25.58,50.94 -84.57,119.66 -129.7,154.71 -38.46,29.87 -33.31,36.72 -99.46,73.41 -84.22,46.71 -174.24,46.9 -270.94,46.9 -182.43,0 -349.81,-130.35 -425.73,-288.03 -23.4,-48.6 -48.26,-122.54 -48.26,-191.53zm-89.23 -22.31c0,248.21 147.03,432.1 354.99,537.23 86.59,43.78 172.45,48.28 286.3,48.28 88.66,0 150.51,-25.62 215.2,-52.46 49.28,-20.46 122.46,-73.69 162.67,-110.56 86.99,-79.73 174.18,-238.5 174.18,-366.73 0,-63.53 1.67,-142.17 -11.41,-200.48 -40.22,-179.3 -190.04,-326.51 -355,-397.83 -139.72,-60.39 -341.39,-59.05 -486.85,12.71 -202.74,100.02 -340.08,296.6 -340.08,529.84z"/>
   <path class="fil0" d="M18541.41 2534.09c0,80.29 23.33,132.96 92.43,180.81 191.03,132.28 621.34,11.65 621.34,-275.61 0,-28.79 -17.44,-68.87 -31.95,-85.14 -64.09,-71.88 -147.8,-115.61 -246.86,-115.61 -110.22,0 -214.11,35.4 -281.22,81.25 -29.49,20.14 -74.13,60.61 -95.7,88.31 -26.4,33.9 -58.04,77.77 -58.04,125.99z"/>
   <path class="fil0" d="M27625.3 2640.03l-128.26 0c0,-28.28 -5.57,-30.39 -5.57,-61.34 0,-115.15 -16.74,-117.1 89.21,-117.1 243.28,0 207.02,178.44 44.61,178.44zm-289.97 -172.87l0 312.28c0,36.03 2.03,224.47 18.46,249.21 14.82,22.31 86.24,35.84 113.97,5.92 25.99,-28.04 23.7,-222.02 23.7,-271.85 79.1,0 98.44,8.41 140.7,60.04 30.64,37.42 50.51,70.93 79.12,110.48 59.23,81.87 77.98,111.35 160.88,118.07 16.23,1.31 70.99,-6.94 70.99,-20.93 0,-24.77 -67.56,-119.21 -88.4,-145.81 -20.89,-26.66 -88.49,-113.53 -95.62,-144.15 63.9,-42.79 154.35,-64.69 133,-233.38 -16.87,-133.29 -101.49,-156.96 -222.23,-156.96l-256.51 0c-31.84,0 -56.76,5.74 -67.18,27.61 -6.94,14.58 -10.88,64.89 -10.88,89.48z"/>
  </g>
 </g>
</svg>
